<svg xmlns="http://www.w3.org/2000/svg" viewBox="0 0 64 64" fill="none">
  <defs>
    <radialGradient id="core" cx="50%" cy="50%" r="40%">
      <stop offset="0%" stop-color="#a78bfa" stop-opacity="0.9"/>
      <stop offset="40%" stop-color="#7c3aed" stop-opacity="0.5"/>
      <stop offset="70%" stop-color="#3b82f6" stop-opacity="0.2"/>
      <stop offset="100%" stop-color="#0a0a1a" stop-opacity="0"/>
    </radialGradient>
    <radialGradient id="glow" cx="50%" cy="50%" r="30%">
      <stop offset="0%" stop-color="#c4b5fd" stop-opacity="0.6"/>
      <stop offset="100%" stop-color="#7c3aed" stop-opacity="0"/>
    </radialGradient>
  </defs>
  <ellipse cx="32" cy="32" rx="24" ry="10" fill="url(#core)" transform="rotate(-30 32 32)"/>
  <ellipse cx="32" cy="32" rx="12" ry="5" fill="url(#glow)" transform="rotate(-30 32 32)"/>
  <circle cx="32" cy="32" r="4" fill="#e2e8f0" opacity="0.8"/>
  <g fill="#e2e8f0" opacity="0.6">
    <circle cx="20" cy="28" r="0.8"/>
    <circle cx="24" cy="25" r="0.5"/>
    <circle cx="28" cy="23" r="0.7"/>
    <circle cx="36" cy="23" r="0.6"/>
    <circle cx="40" cy="25" r="0.5"/>
    <circle cx="44" cy="28" r="0.8"/>
    <circle cx="22" cy="35" r="0.6"/>
    <circle cx="26" cy="38" r="0.5"/>
    <circle cx="30" cy="40" r="0.7"/>
    <circle cx="34" cy="40" r="0.5"/>
    <circle cx="38" cy="38" r="0.6"/>
    <circle cx="42" cy="35" r="0.7"/>
    <circle cx="18" cy="31" r="0.4"/>
    <circle cx="46" cy="31" r="0.4"/>
    <circle cx="30" cy="27" r="0.3"/>
    <circle cx="34" cy="27" r="0.3"/>
  </g>
</svg>
